<?xml version="1.0" encoding="UTF-8"?>
<svg width="500" height="500" viewBox="0 0 500 500" fill="none" xmlns="http://www.w3.org/2000/svg">
    <!-- Chair -->
    <path d="M150 300 L350 300 L380 450 L120 450 Z" fill="#A78BFA"/>
    <path d="M180 200 L320 200 L350 300 L150 300 Z" fill="#8B5CF6"/>
    
    <!-- Person -->
    <g transform="translate(200, 150)">
        <!-- Body -->
        <path d="M40 80 Q100 80 120 150 Q130 180 120 250 L80 250 Q70 180 60 150 Q80 80 40 80" fill="#FCD34D"/>
        
        <!-- Head -->
        <circle cx="80" cy="40" r="35" fill="#FDE68A"/>
        <path d="M60 30 Q80 30 100 30 Q100 60 80 70 Q60 60 60 30" fill="#F59E0B"/>
        
        <!-- Face -->
        <circle cx="70" cy="35" r="3" fill="#1F2937"/>
        <circle cx="90" cy="35" r="3" fill="#1F2937"/>
        <path d="M70 45 Q80 50 90 45" stroke="#1F2937" stroke-width="2" fill="none"/>
    </g>
    
    <!-- Laptop -->
    <path d="M250 250 L350 220 L350 280 L250 310 Z" fill="#818CF8"/>
    <rect x="250" y="250" width="100" height="60" fill="#6366F1"/>
    
    <!-- Cactus -->
    <path d="M380 200 Q380 150 400 100 L420 100 Q440 150 440 200 L380 200" fill="#34D399"/>
    <path d="M390 150 Q390 120 370 90 L360 90 Q340 120 340 150 L390 150" fill="#34D399"/>
    <rect x="380" y="200" width="60" height="100" fill="#34D399"/>
    <rect x="390" y="300" width="40" height="20" fill="#A78BFA" rx="5"/>
</svg> 